<?xml version="1.0" encoding="UTF-8" standalone="no"?>
<svg
   width="96"
   height="96"
   version="1"
   id="svg268"
   xmlns="http://www.w3.org/2000/svg"
   xmlns:svg="http://www.w3.org/2000/svg">
  <defs
     id="defs272" />
  <circle
     style="opacity:0.2;fill:#000000;fill-opacity:1;stroke-width:0;stroke-miterlimit:2;paint-order:markers fill stroke"
     id="path4401-6"
     cx="48"
     cy="50"
     r="40" />
  <circle
     style="display:inline;fill:#c3d5f6;fill-opacity:1;stroke-width:0;stroke-miterlimit:2;paint-order:markers fill stroke"
     id="path4401"
     cx="48"
     cy="48"
     r="40" />
  <rect
     style="fill:#7199f7;fill-opacity:1;stroke-width:0;stroke-miterlimit:0"
     id="rect1"
     width="88"
     height="88"
     x="4"
     y="4"
     rx="2"
     ry="2" />
  <rect
     style="opacity:0.2;fill:#000000;fill-opacity:1;stroke-width:0;stroke-miterlimit:2;paint-order:markers fill stroke"
     id="rect4722"
     width="40"
     height="54"
     x="16"
     y="28"
     rx="2"
     ry="2" />
  <rect
     style="fill:#ffffff;fill-opacity:1;stroke-width:0;stroke-miterlimit:2;paint-order:markers fill stroke"
     id="rect4722-9"
     width="40"
     height="54"
     x="16"
     y="26"
     rx="2"
     ry="2" />
  <path
     id="rect4722-4"
     style="opacity:0.2;fill:#000000;fill-opacity:1;stroke-width:0;stroke-miterlimit:2;paint-order:markers fill stroke"
     d="m 16,32 v -2 c 0,-2.215998 1.784002,-4 4,-4 h 32 c 2.215998,0 4,1.784002 4,4 v 2 c 0,-2.215998 -1.784002,-4 -4,-4 H 20 c -2.215998,0 -4,1.784002 -4,4 z" />
  <path
     style="color:#444444;display:inline;fill:#424242;fill-opacity:1;stroke-width:0.999998"
     class="ColorScheme-Text"
     d="m 76,16 h -2 l -6,6 10,10 6,-6 c 0,-0.666666 0,-1.333334 0,-2 z M 64,26 40,50 v 9.999346 L 50,60 74,36 Z"
     id="path1948" />
</svg>
